<svg xmlns="http://www.w3.org/2000/svg" viewBox="0 0 32 32" width="32" height="32">
  <rect width="32" height="32" rx="7" fill="#0d0b09"/>
  <circle cx="16" cy="18" r="13" fill="none" stroke="#4e2208" stroke-width="0.5"/>
  <circle cx="16" cy="18" r="9"  fill="none" stroke="#7a340c" stroke-width="0.5"/>
  <circle cx="16" cy="18" r="5"  fill="none" stroke="#A07820" stroke-width="0.7"/>
  <!-- Fiamma -->
  <path d="M16 4 C15.5 8 14 10 14.2 13 C13 10 12.5 7 13.5 4 C12 8 12 12 13.5 15 C16 4 16 4 16 4Z" fill="#8B2200" opacity="0.9"/>
  <path d="M16 4 C15.7 7.5 15 9.5 15.2 12 C14.5 9.5 14.3 6.5 15 4 C13.8 7.5 13.8 11.5 15 14 C15.7 11 16 7 16 4Z" fill="#c49830" opacity="0.85"/>
  <!-- Corna -->
  <path d="M9 17 C8 15 6.5 12.5 7 10 C7.5 12 7.5 14.5 9 17Z" fill="#6a3a10"/>
  <path d="M23 17 C24 15 25.5 12.5 25 10 C24.5 12 24.5 14.5 23 17Z" fill="#6a3a10"/>
  <!-- Testa -->
  <ellipse cx="16" cy="19" rx="6" ry="7" fill="#111008"/>
  <!-- Occhi -->
  <ellipse cx="13" cy="17" rx="1.6" ry="1.6" fill="#8B0000"/>
  <ellipse cx="13" cy="17" rx="0.5" ry="1.3" fill="#050302"/>
  <circle cx="12.5" cy="16.2" r="0.5" fill="#ff6600" opacity="0.8"/>
  <ellipse cx="19" cy="17" rx="1.6" ry="1.6" fill="#8B0000"/>
  <ellipse cx="19" cy="17" rx="0.5" ry="1.3" fill="#050302"/>
  <circle cx="18.5" cy="16.2" r="0.5" fill="#ff6600" opacity="0.8"/>
</svg>
