<svg xmlns="http://www.w3.org/2000/svg" viewBox="0 0 64 64" width="64" height="64">
  <rect width="64" height="64" rx="12" fill="#0d0b09"/>
  <circle cx="32" cy="36" r="26" fill="none" stroke="#4e2208" stroke-width="0.8"/>
  <circle cx="32" cy="36" r="18" fill="none" stroke="#7a340c" stroke-width="0.8"/>
  <circle cx="32" cy="36" r="11" fill="none" stroke="#A07820" stroke-width="1"/>
  <!-- Fiamma -->
  <path d="M32 8 C31 14 28 17 28.5 22 C26 17 25 12 27 8 C24 14 24 21 26.5 27 C32 8 32 8 32 8Z" fill="#8B2200" opacity="0.9"/>
  <path d="M32 8 C31.5 13 30 16 30.5 21 C29 16 28.5 11 30 8 C27.5 14 27.5 21 29.5 26.5 C31 21 32 13 32 8Z" fill="#A07820"/>
  <path d="M32 8 C31.7 12 31 15 31.2 19 C30.5 14.5 30.2 10 31 8 C29.5 13 29.5 19.5 31 24 C31.7 19 32 12 32 8Z" fill="#c8a030"/>
  <!-- Corno sinistro -->
  <path d="M18 34 C16 30 13 25 14 19 C15 23 15 28 17 33Z" fill="#6a3a10"/>
  <!-- Corno destro -->
  <path d="M46 34 C48 30 51 25 50 19 C49 23 49 28 47 33Z" fill="#6a3a10"/>
  <!-- Cranio -->
  <ellipse cx="32" cy="38" rx="13" ry="14" fill="#111008"/>
  <ellipse cx="32" cy="38" rx="13" ry="14" fill="none" stroke="#5a3010" stroke-width="0.6"/>
  <!-- Muso -->
  <ellipse cx="32" cy="45" rx="7" ry="6" fill="#0e0c07"/>
  <!-- Occhio sinistro -->
  <ellipse cx="27" cy="36" rx="3.2" ry="3.2" fill="#8B0000"/>
  <ellipse cx="27" cy="36" rx="0.9" ry="2.6" fill="#050302"/>
  <ellipse cx="27" cy="36" rx="2.6" ry="1.1" fill="#cc2200" opacity="0.5"/>
  <circle cx="26.2" cy="34.8" r="0.7" fill="#ff6600" opacity="0.8"/>
  <!-- Occhio destro -->
  <ellipse cx="37" cy="36" rx="3.2" ry="3.2" fill="#8B0000"/>
  <ellipse cx="37" cy="36" rx="0.9" ry="2.6" fill="#050302"/>
  <ellipse cx="37" cy="36" rx="2.6" ry="1.1" fill="#cc2200" opacity="0.5"/>
  <circle cx="36.2" cy="34.8" r="0.7" fill="#ff6600" opacity="0.8"/>
  <!-- Barbetta -->
  <path d="M29 49 Q32 55 35 49" fill="none" stroke="#3a2008" stroke-width="1.2" stroke-linecap="round"/>
  <path d="M32 51 L32 57" fill="none" stroke="#2e1a06" stroke-width="1" stroke-linecap="round"/>
</svg>
